<svg width="600" height="220" viewBox="0 0 600 220" fill="none" xmlns="http://www.w3.org/2000/svg">
<rect width="600" height="220" fill="white"/>
<path d="M510.781 83.5116L497.292 69.7566L492.195 74.6425L505.684 88.3976L510.781 83.5116Z" fill="#AAAAAA"/>
<path d="M443.575 123.588L490.715 77.5083L496.501 83.3381L452.299 125.888L443.575 123.588Z" fill="#FFD43A"/>
<path d="M443.575 123.588L490.715 77.5083L496.501 83.3381L452.299 125.888L443.575 123.588Z" stroke="black"/>
<path d="M508.133 61.4897L518.021 65.5127L519.766 74.1378L512.786 83.3378L498.246 68.3891L508.133 61.4897Z" fill="#FF7474"/>
<path d="M454.626 125.888L497.665 83.9131L503.45 89.7429L457.534 135.663L454.626 125.888Z" fill="#D0A81A"/>
<path d="M454.626 125.888L497.665 83.9131L503.45 89.7429L457.534 135.663L454.626 125.888Z" stroke="black"/>
<path d="M120.763 75.088C120.763 73.7524 121.127 72.8792 121.854 72.4683C122.686 72.0573 123.621 72.1601 124.66 72.7765C125.803 73.2901 126.79 74.2147 127.621 75.5503C128.349 76.4749 128.868 78.0159 129.18 80.1733C129.492 82.2279 129.7 85.1558 129.804 88.957C129.908 92.6554 129.96 97.8948 129.96 104.675C130.167 121.832 130.791 132.002 131.83 135.187C133.389 139.604 133.285 141.608 131.518 141.197C130.687 140.889 129.7 140.221 128.557 139.194C127.31 137.961 126.478 136.368 126.063 134.416C125.647 132.464 125.439 128.561 125.439 122.705C125.439 121.986 125.491 121.01 125.595 119.777C125.595 117.928 125.595 116.644 125.595 115.924C125.595 115.103 125.491 114.178 125.283 113.151C125.076 112.021 124.92 111.301 124.816 110.993C124.712 110.685 124.296 110.325 123.569 109.915C122.945 109.504 122.426 109.298 122.01 109.298C121.595 109.298 120.659 109.349 119.204 109.452C117.75 109.555 116.503 109.76 115.464 110.069C114.528 110.274 112.866 110.582 110.476 110.993C109.021 111.301 107.826 111.558 106.891 111.764L93.7976 114.229L94.8887 127.944C95.4083 136.06 95.3043 140.426 94.5769 141.043C94.2652 141.248 93.7456 141.3 93.0182 141.197C91.9791 140.991 91.2517 140.118 90.836 138.577C90.5243 136.933 90.2126 133.543 89.9008 128.407C89.5891 120.291 88.6539 115.359 87.0952 113.613C85.6404 111.866 85.4845 110.788 86.6275 110.377C87.8745 109.966 88.3941 105.702 88.1862 97.5866C88.0824 89.4706 87.4069 85.0531 86.1599 84.334C85.2247 83.7176 85.0688 82.8443 85.6923 81.7143C86.4197 80.4815 87.4589 79.8651 88.8097 79.8651C89.4332 79.8651 89.9008 80.1219 90.2126 80.6356C90.5243 81.0465 90.836 82.0738 91.1478 83.7176C91.5634 85.2586 91.9271 87.3132 92.2389 89.8816C92.6545 92.4499 93.0702 95.9942 93.4858 100.514C93.5897 100.617 93.6417 100.72 93.6417 100.823C94.1613 105.035 94.6289 107.5 95.0445 108.219C95.4602 108.939 96.6552 109.093 98.6296 108.682C100.708 108.271 105.903 107.346 114.217 105.908L125.595 103.751L124.816 98.203C124.192 93.8882 123.569 90.6521 122.945 88.4947C122.322 85.9263 122.634 83.8203 123.881 82.1766C124.712 81.252 125.076 80.5842 124.972 80.1733C124.868 79.7623 124.296 79.3514 123.257 78.9405C122.634 78.735 122.062 78.2727 121.543 77.5536C121.023 76.7317 120.763 75.9098 120.763 75.088ZM155.483 106.833C155.172 105.908 154.808 105.292 154.392 104.983C154.08 104.675 153.613 104.624 152.989 104.829C152.47 105.035 151.794 105.548 150.963 106.37C150.236 107.089 149.3 108.168 148.157 109.606C142.026 117.106 138.961 124.4 138.961 131.489C138.961 136.317 139.792 139.039 141.455 139.656C143.222 140.272 145.715 138.731 148.937 135.033C152.158 131.437 155.068 125.273 157.666 116.541C159.536 110.48 159.744 107.654 158.289 108.065C158.081 108.065 157.925 108.117 157.821 108.219C156.99 108.733 156.211 108.271 155.483 106.833ZM144.417 107.141C147.326 103.34 150.184 100.977 152.989 100.052C155.795 99.0248 157.666 99.744 158.601 102.21C159.432 103.751 160.471 104.521 161.718 104.521C163.173 104.521 163.9 106.678 163.9 110.993C163.9 115.616 165.199 123.578 167.797 134.879C168.213 136.42 168.836 137.396 169.668 137.807C170.603 138.218 172.577 138.423 175.591 138.423C180.475 138.423 182.813 139.039 182.605 140.272C182.397 140.889 181.254 141.505 179.176 142.121C173.668 143.56 169.616 143.354 167.018 141.505C164.42 139.553 162.601 135.495 161.562 129.331L160.471 122.705L158.289 126.866C156.834 129.537 156.107 131.591 156.107 133.03C156.107 134.776 154.392 137.139 150.963 140.118C147.534 143.097 144.832 144.587 142.858 144.587C140.364 144.587 138.286 143.354 136.623 140.889C135.064 138.423 134.285 135.238 134.285 131.334C134.285 123.835 137.662 115.77 144.417 107.141ZM178.276 112.072C178.276 111.25 178.484 110.582 178.899 110.069C179.419 109.452 179.99 109.144 180.614 109.144C182.069 109.144 183.575 110.736 185.134 113.921C186.797 117.106 187.732 120.342 187.94 123.629L188.096 129.023L192.771 122.551C195.785 118.544 198.176 115.77 199.941 114.229C201.917 112.688 204.566 112.072 207.891 112.38C211.216 112.586 213.71 113.613 215.373 115.462C216.412 116.489 217.348 118.185 218.178 120.547C219.113 122.91 219.842 125.427 220.36 128.098C220.88 130.769 221.244 133.389 221.452 135.957C221.66 138.423 221.607 140.529 221.296 142.276C220.984 143.919 220.413 144.741 219.581 144.741C218.542 144.741 217.243 140.735 215.684 132.721C214.23 125.325 213.035 120.856 212.099 119.315C211.164 117.671 209.294 116.849 206.488 116.849C204.099 116.849 201.5 118.493 198.694 121.78C195.993 124.965 193.811 128.972 192.148 133.8C189.966 140.169 188.044 143.2 186.381 142.892C185.134 142.481 184.511 140.067 184.511 135.649C184.407 131.129 183.887 126.763 182.952 122.551C182.017 118.236 181.029 115.924 179.99 115.616C178.847 115.205 178.276 114.024 178.276 112.072ZM245.625 115.616C245.625 115.205 245.314 114.794 244.69 114.383C244.17 113.87 243.443 113.51 242.508 113.305C240.845 112.894 238.403 114.281 235.182 117.465C231.96 120.547 229.674 123.784 228.324 127.174C227.492 129.434 227.389 131.848 228.012 134.416C228.636 136.985 229.674 138.526 231.129 139.039C233.727 140.067 236.48 139.194 239.391 136.42C242.3 133.543 244.846 129.228 247.028 123.475C248.899 118.647 249.47 116.233 248.743 116.233C248.535 116.233 248.275 116.284 247.963 116.387C247.34 116.592 246.768 116.644 246.249 116.541C245.832 116.335 245.625 116.027 245.625 115.616ZM252.484 74.0093C253.211 72.7765 254.146 72.4683 255.289 73.0847C256.432 73.7011 256.588 84.2312 255.757 104.675C255.134 123.167 255.289 133.8 256.225 136.574C256.952 138.731 258.666 139.45 261.368 138.731C261.784 138.731 262.251 138.628 262.771 138.423C265.889 137.498 267.707 137.498 268.227 138.423C268.538 138.937 268.018 139.707 266.668 140.735C265.421 141.659 263.862 142.532 261.992 143.354C260.121 144.176 258.614 144.587 257.472 144.587C256.536 144.587 255.496 144.022 254.354 142.892C253.211 141.762 252.223 140.375 251.393 138.731C250.664 136.985 250.302 135.341 250.302 133.8C250.302 132.156 250.146 131.334 249.834 131.334C249.417 131.334 247.963 132.824 245.47 135.803C241.417 140.735 237.415 143.457 233.468 143.971C229.622 144.382 226.609 142.481 224.427 138.269C222.868 135.187 222.66 131.591 223.804 127.482C225.051 123.27 227.44 119.263 230.974 115.462C234.298 111.866 237.053 109.709 239.235 108.99C241.417 108.271 243.755 108.887 246.249 110.839L249.99 113.767L250.613 94.8128C251.029 82.1766 251.652 75.2421 252.484 74.0093ZM311.379 108.374C310.444 107.449 309.977 106.576 309.977 105.754C309.977 104.932 310.964 104.521 312.938 104.521C314.705 104.521 315.952 105.754 316.679 108.219C317.406 110.582 317.77 114.897 317.77 121.164C317.77 128.766 316.471 134.314 313.873 137.807C311.276 141.3 307.171 143.046 301.56 143.046C299.377 143.046 297.611 142.686 296.26 141.967C294.91 141.248 293.299 139.707 291.428 137.344C288.207 133.44 286.596 130.769 286.596 129.331C286.596 128.098 285.505 128.766 283.323 131.334C283.115 131.643 282.908 131.951 282.699 132.259C277.92 138.731 274.491 140.94 272.412 138.885C271.268 137.858 270.853 132.31 271.165 122.243C271.58 112.175 272.412 106.935 273.659 106.524C274.179 106.319 274.646 106.935 275.062 108.374C275.477 110.428 275.789 114.383 275.997 120.239L276.465 134.571L280.05 128.715C280.985 127.174 282.024 125.838 283.167 124.708C284.31 123.578 285.141 123.013 285.661 123.013C286.284 123.013 287.167 123.732 288.311 125.17C289.558 126.506 290.752 128.098 291.896 129.948C294.598 134.468 296.987 137.293 299.066 138.423C301.144 139.45 303.742 139.194 306.859 137.653C309.873 135.906 311.483 134.725 311.691 134.108C311.691 134.005 311.691 133.8 311.691 133.492C311.795 133.081 311.847 132.67 311.847 132.259C311.951 131.848 312.055 131.386 312.159 130.872C312.262 130.256 312.367 129.691 312.471 129.177C312.991 125.89 313.094 121.78 312.782 116.849C312.574 111.918 312.106 109.093 311.379 108.374ZM352.39 103.751C356.026 102.62 357.845 103.442 357.845 106.216C357.845 108.374 357.117 109.195 355.663 108.682C354 107.963 351.194 108.425 347.246 110.069C343.4 111.712 340.179 113.716 337.582 116.079C335.503 118.03 334.204 119.777 333.685 121.318C333.165 122.859 332.906 126.044 332.906 130.872C332.906 139.296 331.918 143.354 329.944 143.046L328.697 142.43C328.074 141.813 327.657 138.32 327.45 131.951C327.346 125.992 326.827 120.65 325.892 115.924C325.164 111.61 325.424 109.041 326.671 108.219C327.606 107.603 328.593 108.528 329.633 110.993C329.736 111.199 329.788 111.353 329.788 111.456L331.347 115.616L336.803 110.839C340.439 107.86 343.712 105.959 346.623 105.137C349.635 104.521 351.558 104.059 352.39 103.751ZM369.159 114.846C370.406 112.586 371.549 113.305 372.588 117.003C373.626 120.291 374.094 124.605 373.991 129.948C373.991 133.749 374.146 137.344 374.458 140.735C374.666 143.097 374.458 144.895 373.835 146.128C373.315 147.258 372.588 147.464 371.653 146.744C370.717 146.025 369.886 144.536 369.159 142.276C368.535 139.913 368.223 135.033 368.223 127.636C368.223 120.239 368.535 115.976 369.159 114.846ZM372.744 88.4947C372.744 87.7755 371.912 87.3132 370.25 87.1078C368.587 86.7996 367.6 86.9537 367.288 87.5701C367.08 87.7755 366.976 87.981 366.976 88.1865C367.08 88.3919 367.236 88.5974 367.444 88.8029C367.652 88.9056 367.912 89.0083 368.223 89.1111C368.535 89.1111 368.95 89.1111 369.47 89.1111C371.653 89.1111 372.744 88.9056 372.744 88.4947ZM367.756 80.0192C370.873 78.3754 373.211 77.7077 374.77 78.0159C376.329 78.2213 377.472 79.3514 378.199 81.4061C378.823 83.6662 378.458 86.0291 377.108 88.4947C375.757 90.9603 373.782 92.7067 371.185 93.7341C368.899 94.6587 367.34 95.0696 366.509 94.9669C365.677 94.8641 364.535 94.0936 363.08 92.6554C360.897 90.498 360.222 88.3406 361.053 86.1832C361.885 83.923 364.118 81.8684 367.756 80.0192ZM384.665 68.4616C386.121 67.0233 387.212 68.1021 387.939 71.6978C388.459 74.5743 388.718 79.0432 388.718 85.1045L388.562 99.5899L392.927 97.8948C395.94 96.7647 397.862 96.6106 398.694 97.4325C399.421 98.3571 399.317 98.9735 398.382 99.2817C397.758 99.4871 395.629 100.669 391.991 102.826C389.601 104.161 388.147 105.548 387.627 106.987C387.212 108.322 386.951 111.764 386.848 117.311C386.744 120.702 386.744 123.321 386.848 125.17C387.056 126.917 387.419 128.252 387.939 129.177C388.459 130.102 389.186 130.461 390.121 130.256C391.056 130.05 392.303 129.434 393.862 128.407C395.732 127.174 396.823 126.609 397.135 126.711C397.55 126.814 397.603 127.739 397.291 129.485C397.083 130.821 396.512 131.848 395.576 132.567C394.641 133.286 393.082 133.903 390.9 134.416C389.133 134.827 387.783 135.033 386.848 135.033C385.912 135.033 385.081 134.827 384.354 134.416C383.627 134.005 383.107 133.132 382.795 131.797C382.483 130.358 382.275 128.715 382.171 126.866C382.068 125.016 382.016 122.397 382.016 119.006V106.524L377.339 106.833C373.599 107.038 372.143 106.627 372.975 105.6C373.702 104.983 375.417 104.161 378.119 103.134L383.574 101.285V85.4127C383.574 74.8311 383.938 69.1807 384.665 68.4616ZM424.753 108.99C422.156 107.038 420.025 106.165 418.362 106.37C416.7 106.473 414.413 107.706 411.504 110.069C409.322 111.815 407.919 113.202 407.296 114.229C406.672 115.154 406.62 115.924 407.14 116.541C407.66 117.157 408.854 117.825 410.725 118.544C416.128 120.599 421.012 119.469 425.377 115.154L428.494 112.072L424.753 108.99ZM410.881 104.675C414.725 103.237 418.362 102.723 421.792 103.134C425.221 103.545 427.871 104.726 429.741 106.678C431.403 108.425 432.287 109.709 432.391 110.531C432.494 111.25 431.976 112.791 430.832 115.154C429.17 118.133 427.351 120.239 425.377 121.472C423.403 122.397 420.129 122.91 415.557 123.013C411.089 123.013 408.075 122.499 406.516 121.472C404.231 120.136 402.723 121.215 401.996 124.708C401.061 129.023 401.632 132.927 403.711 136.42C404.126 137.242 404.646 137.909 405.269 138.423C409.218 142.019 415.037 143.765 422.727 143.662C430.417 143.56 435.508 141.608 438.002 137.807C438.729 136.677 439.717 136.728 440.964 137.961C443.249 140.324 441.951 142.584 437.067 144.741C430.832 147.515 423.818 148.491 416.024 147.669C414.569 147.464 413.219 147.207 411.972 146.899C408.958 146.179 405.633 144.484 401.996 141.813C399.502 139.964 398.047 138.474 397.632 137.344C397.216 136.112 397.164 133.184 397.476 128.561C397.788 123.116 399.243 118.082 401.84 113.459C404.438 108.836 407.452 105.908 410.881 104.675Z" fill="black"/>
<path d="M517.943 62.9117C512.92 57.9464 504.747 57.9464 499.726 62.9117C496.696 65.907 441.709 120.269 438.676 123.268L435.433 144.484L456.893 141.278L517.942 80.9216C522.964 75.9564 522.964 67.877 517.943 62.9117ZM452.938 123.576L446.562 122.675L490.617 79.1204L494.26 82.7225L452.938 123.576ZM456.581 127.178L497.904 86.3245L501.547 89.9266L457.492 133.481L456.581 127.178ZM494.26 75.5186L497.904 71.9167L508.834 82.7229L505.191 86.3248L494.26 75.5186ZM443.262 127.355L451.571 128.529L452.759 136.743L441.571 138.415L443.262 127.355ZM514.298 77.3197L512.477 79.1207L501.547 68.3145L503.369 66.5135C506.382 63.5344 511.286 63.5344 514.298 66.5135C517.312 69.4928 517.312 74.3404 514.298 77.3197Z" fill="black"/>
</svg>
