<svg width="386" height="100" viewBox="0 0 386 100" fill="none" xmlns="http://www.w3.org/2000/svg">
<rect x="362.18" y="11.1902" width="16.6594" height="6.10367" transform="rotate(45.887 362.18 11.1902)" fill="#AAAAAA"/>
<path d="M316 58L356.526 17.9306L361.5 23L323.5 60L316 58Z" fill="#FFD43A"/>
<path d="M316 58L356.526 17.9306L361.5 23L323.5 60L316 58Z" stroke="black"/>
<path d="M371.5 4.00175L380 7.50001L381.5 15L375.5 23L363 10.0011L371.5 4.00175Z" fill="#FF7474"/>
<path d="M325.5 59.9999L362.5 23.5L367.474 28.5694L328 68.5L325.5 59.9999Z" fill="#D0A81A"/>
<path d="M325.5 59.9999L362.5 23.5L367.474 28.5694L328 68.5L325.5 59.9999Z" stroke="black"/>
<path d="M38.4824 15.826C38.4824 14.6647 38.7951 13.9053 39.4204 13.548C40.1351 13.1907 40.9391 13.28 41.8324 13.816C42.8151 14.2627 43.6637 15.0667 44.3784 16.228C45.0038 17.032 45.4504 18.372 45.7184 20.248C45.9864 22.0347 46.1651 24.5807 46.2544 27.886C46.3438 31.102 46.3884 35.658 46.3884 41.554C46.5671 56.4727 47.1031 65.3167 47.9964 68.086C49.3364 71.9273 49.2471 73.6693 47.7284 73.312C47.0137 73.044 46.1651 72.4633 45.1824 71.57C44.1104 70.498 43.3957 69.1133 43.0384 67.416C42.6811 65.7187 42.5024 62.324 42.5024 57.232C42.5024 56.6067 42.5471 55.758 42.6364 54.686C42.6364 53.078 42.6364 51.9613 42.6364 51.336C42.6364 50.6213 42.5471 49.8173 42.3684 48.924C42.1897 47.9413 42.0557 47.316 41.9664 47.048C41.8771 46.78 41.5197 46.4673 40.8944 46.11C40.3584 45.7527 39.9118 45.574 39.5544 45.574C39.1971 45.574 38.3931 45.6187 37.1424 45.708C35.8917 45.7973 34.8197 45.976 33.9264 46.244C33.1224 46.4227 31.6931 46.6907 29.6384 47.048C28.3877 47.316 27.3604 47.5393 26.5564 47.718L15.3004 49.862L16.2384 61.788C16.6851 68.8453 16.5957 72.642 15.9704 73.178C15.7024 73.3567 15.2557 73.4013 14.6304 73.312C13.7371 73.1333 13.1117 72.374 12.7544 71.034C12.4864 69.6047 12.2184 66.6567 11.9504 62.19C11.6824 55.1327 10.8784 50.8447 9.53841 49.326C8.28775 47.8073 8.15375 46.8693 9.13641 46.512C10.2084 46.1547 10.6551 42.4473 10.4764 35.39C10.3871 28.3327 9.80641 24.4913 8.73441 23.866C7.93041 23.33 7.79641 22.5707 8.33241 21.588C8.95775 20.516 9.85108 19.98 11.0124 19.98C11.5484 19.98 11.9504 20.2033 12.2184 20.65C12.4864 21.0073 12.7544 21.9007 13.0224 23.33C13.3797 24.67 13.6924 26.4567 13.9604 28.69C14.3177 30.9233 14.6751 34.0053 15.0324 37.936C15.1217 38.0253 15.1664 38.1147 15.1664 38.204C15.6131 41.8667 16.0151 44.0107 16.3724 44.636C16.7297 45.2613 17.7571 45.3953 19.4544 45.038C21.2411 44.6807 25.7077 43.8767 32.8544 42.626L42.6364 40.75L41.9664 35.926C41.4304 32.174 40.8944 29.36 40.3584 27.484C39.8224 25.2507 40.0904 23.4193 41.1624 21.99C41.8771 21.186 42.1898 20.6053 42.1004 20.248C42.0111 19.8907 41.5197 19.5333 40.6264 19.176C40.0904 18.9973 39.5991 18.5953 39.1524 17.97C38.7057 17.2553 38.4824 16.5407 38.4824 15.826ZM68.3309 43.43C68.0629 42.626 67.7502 42.09 67.3929 41.822C67.1249 41.554 66.7229 41.5093 66.1869 41.688C65.7402 41.8667 65.1596 42.3133 64.4449 43.028C63.8196 43.6533 63.0156 44.5913 62.0329 45.842C56.7622 52.3633 54.1269 58.706 54.1269 64.87C54.1269 69.0687 54.8416 71.436 56.2709 71.972C57.7896 72.508 59.9336 71.168 62.7029 67.952C65.4722 64.8253 67.9736 59.4653 70.2069 51.872C71.8149 46.6013 71.9936 44.1447 70.7429 44.502C70.5642 44.502 70.4302 44.5467 70.3409 44.636C69.6262 45.0827 68.9562 44.6807 68.3309 43.43ZM58.8169 43.698C61.3182 40.3927 63.7749 38.338 66.1869 37.534C68.5989 36.6407 70.2069 37.266 71.0109 39.41C71.7256 40.75 72.6189 41.42 73.6909 41.42C74.9416 41.42 75.5669 43.296 75.5669 47.048C75.5669 51.068 76.6836 57.9913 78.9169 67.818C79.2742 69.158 79.8102 70.0067 80.5249 70.364C81.3289 70.7213 83.0262 70.9 85.6169 70.9C89.8156 70.9 91.8256 71.436 91.6469 72.508C91.4683 73.044 90.4856 73.58 88.6989 74.116C83.9642 75.3667 80.4802 75.188 78.2469 73.58C76.0136 71.8827 74.4502 68.354 73.5569 62.994L72.6189 57.232L70.7429 60.85C69.4922 63.1727 68.8669 64.9593 68.8669 66.21C68.8669 67.7287 67.3929 69.7833 64.4449 72.374C61.4969 74.9647 59.1742 76.26 57.4769 76.26C55.3329 76.26 53.5462 75.188 52.1169 73.044C50.7769 70.9 50.1069 68.1307 50.1069 64.736C50.1069 58.2147 53.0102 51.202 58.8169 43.698ZM87.9253 47.986C87.9253 47.2713 88.1039 46.6907 88.4613 46.244C88.9079 45.708 89.3993 45.44 89.9353 45.44C91.1859 45.44 92.4813 46.8247 93.8213 49.594C95.2506 52.3633 96.0546 55.1773 96.2333 58.036L96.3673 62.726L100.387 57.098C102.978 53.614 105.033 51.202 106.551 49.862C108.249 48.522 110.527 47.986 113.385 48.254C116.244 48.4327 118.388 49.326 119.817 50.934C120.711 51.8273 121.515 53.3013 122.229 55.356C123.033 57.4107 123.659 59.5993 124.105 61.922C124.552 64.2447 124.865 66.5227 125.043 68.756C125.222 70.9 125.177 72.7313 124.909 74.25C124.641 75.6793 124.15 76.394 123.435 76.394C122.542 76.394 121.425 72.91 120.085 65.942C118.835 59.51 117.807 55.624 117.003 54.284C116.199 52.8547 114.591 52.14 112.179 52.14C110.125 52.14 107.891 53.5693 105.479 56.428C103.157 59.1973 101.281 62.6813 99.8513 66.88C97.9753 72.4187 96.3226 75.054 94.8933 74.786C93.8213 74.4287 93.2853 72.3293 93.2853 68.488C93.1959 64.5573 92.7493 60.7607 91.9453 57.098C91.1413 53.346 90.2926 51.336 89.3993 51.068C88.4166 50.7107 87.9253 49.6833 87.9253 47.986ZM145.825 51.068C145.825 50.7107 145.557 50.3533 145.021 49.996C144.574 49.5493 143.949 49.2367 143.145 49.058C141.715 48.7007 139.616 49.9067 136.847 52.676C134.077 55.356 132.112 58.17 130.951 61.118C130.236 63.0833 130.147 65.1827 130.683 67.416C131.219 69.6493 132.112 70.9893 133.363 71.436C135.596 72.3293 137.963 71.57 140.465 69.158C142.966 66.6567 145.155 62.9047 147.031 57.902C148.639 53.7033 149.13 51.604 148.505 51.604C148.326 51.604 148.103 51.6487 147.835 51.738C147.299 51.9167 146.807 51.9613 146.361 51.872C146.003 51.6933 145.825 51.4253 145.825 51.068ZM151.721 14.888C152.346 13.816 153.15 13.548 154.133 14.084C155.115 14.62 155.249 23.7767 154.535 41.554C153.999 57.634 154.133 66.88 154.937 69.292C155.562 71.168 157.036 71.7933 159.359 71.168C159.716 71.168 160.118 71.0787 160.565 70.9C163.245 70.096 164.808 70.096 165.255 70.9C165.523 71.3467 165.076 72.0167 163.915 72.91C162.843 73.714 161.503 74.4733 159.895 75.188C158.287 75.9027 156.991 76.26 156.009 76.26C155.205 76.26 154.311 75.7687 153.329 74.786C152.346 73.8033 151.497 72.5973 150.783 71.168C150.157 69.6493 149.845 68.22 149.845 66.88C149.845 65.4507 149.711 64.736 149.443 64.736C149.085 64.736 147.835 66.0313 145.691 68.622C142.207 72.91 138.767 75.2773 135.373 75.724C132.067 76.0813 129.477 74.4287 127.601 70.766C126.261 68.086 126.082 64.9593 127.065 61.386C128.137 57.7233 130.191 54.2393 133.229 50.934C136.087 47.8073 138.455 45.9313 140.331 45.306C142.207 44.6807 144.217 45.2167 146.361 46.914L149.577 49.46L150.113 32.978C150.47 21.99 151.006 15.96 151.721 14.888ZM202.353 44.77C201.549 43.966 201.147 43.2067 201.147 42.492C201.147 41.7773 201.996 41.42 203.693 41.42C205.212 41.42 206.284 42.492 206.909 44.636C207.534 46.6907 207.847 50.4427 207.847 55.892C207.847 62.5027 206.73 67.3267 204.497 70.364C202.264 73.4013 198.735 74.92 193.911 74.92C192.035 74.92 190.516 74.6073 189.355 73.982C188.194 73.3567 186.809 72.0167 185.201 69.962C182.432 66.5673 181.047 64.2447 181.047 62.994C181.047 61.922 180.109 62.5027 178.233 64.736C178.054 65.004 177.876 65.272 177.697 65.54C173.588 71.168 170.64 73.0887 168.853 71.302C167.87 70.4087 167.513 65.5847 167.781 56.83C168.138 48.0753 168.853 43.5193 169.925 43.162C170.372 42.9833 170.774 43.5193 171.131 44.77C171.488 46.5567 171.756 49.996 171.935 55.088L172.337 67.55L175.419 62.458C176.223 61.118 177.116 59.9567 178.099 58.974C179.082 57.9913 179.796 57.5 180.243 57.5C180.779 57.5 181.538 58.1253 182.521 59.376C183.593 60.5373 184.62 61.922 185.603 63.53C187.926 67.4607 189.98 69.9173 191.767 70.9C193.554 71.7933 195.787 71.57 198.467 70.23C201.058 68.7113 202.442 67.684 202.621 67.148C202.621 67.0587 202.621 66.88 202.621 66.612C202.71 66.2547 202.755 65.8973 202.755 65.54C202.844 65.1827 202.934 64.7807 203.023 64.334C203.112 63.798 203.202 63.3067 203.291 62.86C203.738 60.0013 203.827 56.428 203.559 52.14C203.38 47.852 202.978 45.3953 202.353 44.77ZM237.609 40.75C240.735 39.7673 242.299 40.482 242.299 42.894C242.299 44.77 241.673 45.4847 240.423 45.038C238.993 44.4127 236.581 44.8147 233.187 46.244C229.881 47.6733 227.112 49.4153 224.879 51.47C223.092 53.1673 221.975 54.686 221.529 56.026C221.082 57.366 220.859 60.1353 220.859 64.334C220.859 71.6593 220.01 75.188 218.313 74.92L217.241 74.384C216.705 73.848 216.347 70.8107 216.169 65.272C216.079 60.0907 215.633 55.4453 214.829 51.336C214.203 47.584 214.427 45.3507 215.499 44.636C216.303 44.1 217.151 44.904 218.045 47.048C218.134 47.2267 218.179 47.3607 218.179 47.45L219.519 51.068L224.209 46.914C227.335 44.3233 230.149 42.6707 232.651 41.956C235.241 41.42 236.894 41.018 237.609 40.75ZM252.025 50.398C253.097 48.4327 254.08 49.058 254.973 52.274C255.866 55.1327 256.268 58.8847 256.179 63.53C256.179 66.8353 256.313 69.962 256.581 72.91C256.76 74.9647 256.581 76.528 256.045 77.6C255.598 78.5827 254.973 78.7613 254.169 78.136C253.365 77.5107 252.65 76.2153 252.025 74.25C251.489 72.1953 251.221 67.952 251.221 61.52C251.221 55.088 251.489 51.3807 252.025 50.398ZM255.107 27.484C255.107 26.8587 254.392 26.4567 252.963 26.278C251.534 26.01 250.685 26.144 250.417 26.68C250.238 26.8587 250.149 27.0373 250.149 27.216C250.238 27.3947 250.372 27.5733 250.551 27.752C250.73 27.8413 250.953 27.9307 251.221 28.02C251.489 28.02 251.846 28.02 252.293 28.02C254.169 28.02 255.107 27.8413 255.107 27.484ZM250.819 20.114C253.499 18.6847 255.509 18.104 256.849 18.372C258.189 18.5507 259.172 19.5333 259.797 21.32C260.333 23.2853 260.02 25.34 258.859 27.484C257.698 29.628 256 31.1467 253.767 32.04C251.802 32.844 250.462 33.2013 249.747 33.112C249.032 33.0227 248.05 32.3527 246.799 31.102C244.923 29.226 244.342 27.35 245.057 25.474C245.772 23.5087 247.692 21.722 250.819 20.114ZM265.356 10.064C266.607 8.81333 267.545 9.75133 268.17 12.878C268.617 15.3793 268.84 19.2653 268.84 24.536L268.706 37.132L272.458 35.658C275.049 34.6753 276.701 34.5413 277.416 35.256C278.041 36.06 277.952 36.596 277.148 36.864C276.612 37.0427 274.781 38.07 271.654 39.946C269.599 41.1073 268.349 42.3133 267.902 43.564C267.545 44.7253 267.321 47.718 267.232 52.542C267.143 55.49 267.143 57.768 267.232 59.376C267.411 60.8947 267.723 62.056 268.17 62.86C268.617 63.664 269.242 63.9767 270.046 63.798C270.85 63.6193 271.922 63.0833 273.262 62.19C274.87 61.118 275.808 60.6267 276.076 60.716C276.433 60.8053 276.478 61.6093 276.21 63.128C276.031 64.2893 275.54 65.1827 274.736 65.808C273.932 66.4333 272.592 66.9693 270.716 67.416C269.197 67.7733 268.036 67.952 267.232 67.952C266.428 67.952 265.713 67.7733 265.088 67.416C264.463 67.0587 264.016 66.2993 263.748 65.138C263.48 63.8873 263.301 62.458 263.212 60.85C263.123 59.242 263.078 56.964 263.078 54.016V43.162L259.058 43.43C255.842 43.6087 254.591 43.2513 255.306 42.358C255.931 41.822 257.405 41.1073 259.728 40.214L264.418 38.606V24.804C264.418 15.6027 264.731 10.6893 265.356 10.064ZM299.819 45.306C297.586 43.6087 295.754 42.8493 294.325 43.028C292.896 43.1173 290.93 44.1893 288.429 46.244C286.553 47.7627 285.347 48.9687 284.811 49.862C284.275 50.666 284.23 51.336 284.677 51.872C285.124 52.408 286.151 52.9887 287.759 53.614C292.404 55.4007 296.603 54.418 300.355 50.666L303.035 47.986L299.819 45.306ZM287.893 41.554C291.198 40.3033 294.325 39.8567 297.273 40.214C300.221 40.5713 302.499 41.5987 304.107 43.296C305.536 44.8147 306.296 45.9313 306.385 46.646C306.474 47.2713 306.028 48.6113 305.045 50.666C303.616 53.2567 302.052 55.088 300.355 56.16C298.658 56.964 295.844 57.4107 291.913 57.5C288.072 57.5 285.481 57.0533 284.141 56.16C282.176 54.9987 280.88 55.9367 280.255 58.974C279.451 62.726 279.942 66.1207 281.729 69.158C282.086 69.8727 282.533 70.4533 283.069 70.9C286.464 74.0267 291.466 75.5453 298.077 75.456C304.688 75.3667 309.065 73.6693 311.209 70.364C311.834 69.3813 312.683 69.426 313.755 70.498C315.72 72.5527 314.604 74.518 310.405 76.394C305.045 78.806 299.015 79.6547 292.315 78.94C291.064 78.7613 289.903 78.538 288.831 78.27C286.24 77.6447 283.382 76.1707 280.255 73.848C278.111 72.24 276.86 70.9447 276.503 69.962C276.146 68.89 276.101 66.344 276.369 62.324C276.637 57.5893 277.888 53.212 280.121 49.192C282.354 45.172 284.945 42.626 287.893 41.554Z" fill="black"/>
<path d="M379.933 5.23822C375.615 0.920593 368.589 0.920593 364.272 5.23822C361.667 7.84279 314.396 55.1142 311.788 57.7217L309 76.1706L327.449 73.3825L379.932 20.899C384.25 16.5814 384.25 9.55585 379.933 5.23822V5.23822ZM324.049 57.9899L318.568 57.2067L356.441 19.3327L359.573 22.465L324.049 57.9899ZM327.181 61.122L362.706 25.5972L365.838 28.7294L327.964 66.6031L327.181 61.122ZM359.573 16.2008L362.706 13.0686L372.102 22.4653L368.97 25.5975L359.573 16.2008ZM315.731 61.276L322.874 62.2964L323.895 69.4398L314.277 70.8933L315.731 61.276ZM376.8 17.7669L375.234 19.333L365.838 9.93635L367.404 8.37021C369.994 5.77966 374.21 5.77966 376.8 8.37021C379.391 10.9609 379.391 15.1762 376.8 17.7669V17.7669Z" fill="black"/>
</svg>
