<svg width="818" height="224" viewBox="0 0 818 224" fill="none" xmlns="http://www.w3.org/2000/svg">
<g filter="url(#filter0_dd)">
<rect x="4" y="4" width="810" height="204.363" rx="102.182" fill="white"/>
<path d="M150.323 86.806V93.128H137.969V127H130.603V93.128H118.249V86.806H150.323ZM170.737 102.988C170.157 102.795 169.345 102.601 168.301 102.408C167.296 102.176 166.116 102.06 164.763 102.06C163.99 102.06 163.158 102.137 162.269 102.292C161.418 102.447 160.819 102.582 160.471 102.698V127H153.453V98.116C154.806 97.6133 156.488 97.1493 158.499 96.724C160.548 96.26 162.81 96.028 165.285 96.028C165.749 96.028 166.29 96.0667 166.909 96.144C167.528 96.1827 168.146 96.26 168.765 96.376C169.384 96.4533 169.983 96.5693 170.563 96.724C171.143 96.84 171.607 96.956 171.955 97.072L170.737 102.988ZM202.631 96.666C199.499 108.189 195.864 118.629 191.727 127.986C190.954 129.726 190.161 131.215 189.349 132.452C188.537 133.689 187.628 134.714 186.623 135.526C185.618 136.338 184.496 136.918 183.259 137.266C182.022 137.653 180.591 137.846 178.967 137.846C177.884 137.846 176.802 137.73 175.719 137.498C174.675 137.266 173.882 137.015 173.341 136.744L174.617 131.118C176.009 131.659 177.382 131.93 178.735 131.93C180.552 131.93 181.964 131.485 182.969 130.596C184.013 129.745 184.922 128.411 185.695 126.594C183.491 122.341 181.364 117.701 179.315 112.674C177.304 107.647 175.506 102.311 173.921 96.666H181.403C181.79 98.29 182.254 100.049 182.795 101.944C183.375 103.839 183.994 105.772 184.651 107.744C185.308 109.677 186.004 111.611 186.739 113.544C187.474 115.477 188.208 117.275 188.943 118.938C190.18 115.497 191.34 111.843 192.423 107.976C193.506 104.071 194.492 100.301 195.381 96.666H202.631ZM231.57 121.548C234.2 121.548 236.114 121.103 237.312 120.214C238.511 119.325 239.11 118.068 239.11 116.444C239.11 115.477 238.898 114.646 238.472 113.95C238.086 113.254 237.506 112.635 236.732 112.094C235.998 111.514 235.089 110.992 234.006 110.528C232.924 110.025 231.686 109.542 230.294 109.078C228.902 108.575 227.549 108.034 226.234 107.454C224.958 106.835 223.818 106.081 222.812 105.192C221.846 104.303 221.053 103.239 220.434 102.002C219.854 100.765 219.564 99.276 219.564 97.536C219.564 93.9013 220.821 91.0593 223.334 89.01C225.848 86.922 229.27 85.878 233.6 85.878C236.114 85.878 238.337 86.168 240.27 86.748C242.242 87.2893 243.789 87.8887 244.91 88.546L242.648 94.462C241.334 93.7273 239.884 93.1667 238.298 92.78C236.752 92.3933 235.147 92.2 233.484 92.2C231.512 92.2 229.966 92.606 228.844 93.418C227.762 94.23 227.22 95.3707 227.22 96.84C227.22 97.7293 227.394 98.5027 227.742 99.16C228.129 99.7787 228.651 100.339 229.308 100.842C230.004 101.345 230.797 101.809 231.686 102.234C232.614 102.659 233.62 103.065 234.702 103.452C236.597 104.148 238.279 104.863 239.748 105.598C241.256 106.294 242.513 107.145 243.518 108.15C244.562 109.117 245.355 110.277 245.896 111.63C246.438 112.945 246.708 114.549 246.708 116.444C246.708 120.079 245.413 122.901 242.822 124.912C240.27 126.884 236.52 127.87 231.57 127.87C229.908 127.87 228.38 127.754 226.988 127.522C225.635 127.329 224.417 127.077 223.334 126.768C222.29 126.459 221.382 126.149 220.608 125.84C219.835 125.492 219.216 125.183 218.752 124.912L220.898 118.938C221.942 119.518 223.354 120.098 225.132 120.678C226.911 121.258 229.057 121.548 231.57 121.548ZM259.877 127H252.859V96.666H259.877V127ZM260.631 87.792C260.631 89.1067 260.205 90.1507 259.355 90.924C258.504 91.6973 257.499 92.084 256.339 92.084C255.14 92.084 254.115 91.6973 253.265 90.924C252.414 90.1507 251.989 89.1067 251.989 87.792C251.989 86.4387 252.414 85.3753 253.265 84.602C254.115 83.8287 255.14 83.442 256.339 83.442C257.499 83.442 258.504 83.8287 259.355 84.602C260.205 85.3753 260.631 86.4387 260.631 87.792ZM286.114 111.05C286.114 107.879 285.708 105.598 284.896 104.206C284.123 102.775 282.653 102.06 280.488 102.06C279.715 102.06 278.864 102.118 277.936 102.234C277.008 102.35 276.312 102.447 275.848 102.524V127H268.83V97.652C270.183 97.2653 271.943 96.898 274.108 96.55C276.312 96.202 278.632 96.028 281.068 96.028C283.156 96.028 284.857 96.2987 286.172 96.84C287.525 97.3813 288.647 98.0967 289.536 98.986C289.961 98.6767 290.503 98.348 291.16 98C291.817 97.652 292.552 97.3427 293.364 97.072C294.176 96.7627 295.027 96.5113 295.916 96.318C296.844 96.1247 297.772 96.028 298.7 96.028C301.059 96.028 302.992 96.376 304.5 97.072C306.047 97.7293 307.245 98.6767 308.096 99.914C308.985 101.113 309.585 102.582 309.894 104.322C310.242 106.023 310.416 107.899 310.416 109.948V127H303.398V111.05C303.398 107.879 303.011 105.598 302.238 104.206C301.465 102.775 299.976 102.06 297.772 102.06C296.651 102.06 295.587 102.253 294.582 102.64C293.577 102.988 292.823 103.336 292.32 103.684C292.629 104.651 292.842 105.675 292.958 106.758C293.074 107.841 293.132 109.001 293.132 110.238V127H286.114V111.05ZM343.896 126.072C342.542 126.42 340.783 126.768 338.618 127.116C336.452 127.503 334.074 127.696 331.484 127.696C329.048 127.696 326.998 127.348 325.336 126.652C323.712 125.956 322.397 124.989 321.392 123.752C320.425 122.515 319.729 121.045 319.304 119.344C318.878 117.604 318.666 115.709 318.666 113.66V96.666H325.684V112.558C325.684 115.806 326.148 118.126 327.076 119.518C328.042 120.91 329.705 121.606 332.064 121.606C332.914 121.606 333.804 121.567 334.732 121.49C335.698 121.413 336.414 121.316 336.878 121.2V96.666H343.896V126.072ZM363.384 127.58C361.296 127.541 359.556 127.309 358.164 126.884C356.811 126.459 355.728 125.859 354.916 125.086C354.104 124.274 353.524 123.288 353.176 122.128C352.867 120.929 352.712 119.576 352.712 118.068V83.152L359.73 81.992V116.734C359.73 117.585 359.788 118.3 359.904 118.88C360.059 119.46 360.31 119.963 360.658 120.388C361.006 120.775 361.47 121.084 362.05 121.316C362.669 121.509 363.442 121.664 364.37 121.78L363.384 127.58ZM380.719 122.07C382.884 122.07 384.527 121.954 385.649 121.722V113.95C385.262 113.834 384.701 113.718 383.967 113.602C383.232 113.486 382.42 113.428 381.531 113.428C380.757 113.428 379.965 113.486 379.153 113.602C378.379 113.718 377.664 113.931 377.007 114.24C376.388 114.549 375.885 114.994 375.499 115.574C375.112 116.115 374.919 116.811 374.919 117.662C374.919 119.325 375.441 120.485 376.485 121.142C377.529 121.761 378.94 122.07 380.719 122.07ZM380.139 95.912C382.459 95.912 384.411 96.202 385.997 96.782C387.582 97.362 388.839 98.174 389.767 99.218C390.733 100.262 391.41 101.538 391.797 103.046C392.222 104.515 392.435 106.139 392.435 107.918V126.304C391.352 126.536 389.709 126.807 387.505 127.116C385.339 127.464 382.884 127.638 380.139 127.638C378.321 127.638 376.659 127.464 375.151 127.116C373.643 126.768 372.347 126.207 371.265 125.434C370.221 124.661 369.389 123.655 368.771 122.418C368.191 121.181 367.901 119.653 367.901 117.836C367.901 116.096 368.229 114.627 368.887 113.428C369.583 112.229 370.511 111.263 371.671 110.528C372.831 109.755 374.165 109.213 375.673 108.904C377.219 108.556 378.824 108.382 380.487 108.382C381.26 108.382 382.072 108.44 382.923 108.556C383.773 108.633 384.682 108.788 385.649 109.02V107.86C385.649 107.048 385.552 106.275 385.359 105.54C385.165 104.805 384.817 104.167 384.315 103.626C383.851 103.046 383.213 102.601 382.401 102.292C381.627 101.983 380.641 101.828 379.443 101.828C377.819 101.828 376.33 101.944 374.977 102.176C373.623 102.408 372.521 102.679 371.671 102.988L370.801 97.304C371.69 96.9947 372.985 96.6853 374.687 96.376C376.388 96.0667 378.205 95.912 380.139 95.912ZM400.681 88.662L407.699 87.502V96.666H418.487V102.524H407.699V114.878C407.699 117.314 408.086 119.054 408.859 120.098C409.633 121.142 410.947 121.664 412.803 121.664C414.079 121.664 415.201 121.529 416.167 121.258C417.173 120.987 417.965 120.736 418.545 120.504L419.705 126.072C418.893 126.42 417.83 126.768 416.515 127.116C415.201 127.503 413.654 127.696 411.875 127.696C409.71 127.696 407.893 127.406 406.423 126.826C404.993 126.246 403.852 125.415 403.001 124.332C402.151 123.211 401.551 121.877 401.203 120.33C400.855 118.745 400.681 116.947 400.681 114.936V88.662ZM423.08 111.978C423.08 109.31 423.466 106.971 424.24 104.96C425.052 102.949 426.115 101.287 427.43 99.972C428.744 98.6187 430.252 97.6133 431.954 96.956C433.655 96.26 435.395 95.912 437.174 95.912C441.35 95.912 444.598 97.2073 446.918 99.798C449.276 102.389 450.456 106.255 450.456 111.398C450.456 111.785 450.436 112.229 450.398 112.732C450.398 113.196 450.378 113.621 450.34 114.008H430.33C430.523 116.444 431.374 118.339 432.882 119.692C434.428 121.007 436.652 121.664 439.552 121.664C441.253 121.664 442.8 121.509 444.192 121.2C445.622 120.891 446.744 120.562 447.556 120.214L448.484 125.956C448.097 126.149 447.556 126.362 446.86 126.594C446.202 126.787 445.429 126.961 444.54 127.116C443.689 127.309 442.761 127.464 441.756 127.58C440.75 127.696 439.726 127.754 438.682 127.754C436.014 127.754 433.694 127.367 431.722 126.594C429.75 125.782 428.126 124.68 426.85 123.288C425.574 121.857 424.626 120.195 424.008 118.3C423.389 116.367 423.08 114.259 423.08 111.978ZM443.438 108.846C443.438 107.879 443.302 106.971 443.032 106.12C442.761 105.231 442.355 104.477 441.814 103.858C441.311 103.201 440.673 102.698 439.9 102.35C439.165 101.963 438.276 101.77 437.232 101.77C436.149 101.77 435.202 101.983 434.39 102.408C433.578 102.795 432.882 103.317 432.302 103.974C431.76 104.631 431.335 105.385 431.026 106.236C430.716 107.087 430.504 107.957 430.388 108.846H443.438ZM483.787 81.992C485.411 81.992 486.842 82.1467 488.079 82.456C489.317 82.7267 490.245 82.978 490.863 83.21L489.529 89.01C488.872 88.7007 488.099 88.4493 487.209 88.256C486.359 88.0627 485.431 87.966 484.425 87.966C483.304 87.966 482.357 88.14 481.583 88.488C480.81 88.7973 480.191 89.242 479.727 89.822C479.263 90.402 478.935 91.1173 478.741 91.968C478.548 92.78 478.451 93.6693 478.451 94.636V96.666H489.471V102.524H478.451V127H471.433V94.52C471.433 90.6147 472.458 87.56 474.507 85.356C476.557 83.1133 479.65 81.992 483.787 81.992ZM521.524 111.804C521.524 114.201 521.176 116.386 520.48 118.358C519.784 120.33 518.798 122.012 517.522 123.404C516.246 124.796 514.699 125.879 512.882 126.652C511.103 127.425 509.131 127.812 506.966 127.812C504.8 127.812 502.828 127.425 501.05 126.652C499.271 125.879 497.744 124.796 496.468 123.404C495.192 122.012 494.186 120.33 493.452 118.358C492.756 116.386 492.408 114.201 492.408 111.804C492.408 109.407 492.756 107.241 493.452 105.308C494.186 103.336 495.192 101.654 496.468 100.262C497.782 98.87 499.329 97.8067 501.108 97.072C502.886 96.2987 504.839 95.912 506.966 95.912C509.092 95.912 511.045 96.2987 512.824 97.072C514.641 97.8067 516.188 98.87 517.464 100.262C518.74 101.654 519.726 103.336 520.422 105.308C521.156 107.241 521.524 109.407 521.524 111.804ZM514.332 111.804C514.332 108.788 513.674 106.41 512.36 104.67C511.084 102.891 509.286 102.002 506.966 102.002C504.646 102.002 502.828 102.891 501.514 104.67C500.238 106.41 499.6 108.788 499.6 111.804C499.6 114.859 500.238 117.275 501.514 119.054C502.828 120.833 504.646 121.722 506.966 121.722C509.286 121.722 511.084 120.833 512.36 119.054C513.674 117.275 514.332 114.859 514.332 111.804ZM546.038 102.988C545.458 102.795 544.646 102.601 543.602 102.408C542.596 102.176 541.417 102.06 540.064 102.06C539.29 102.06 538.459 102.137 537.57 102.292C536.719 102.447 536.12 102.582 535.772 102.698V127H528.754V98.116C530.107 97.6133 531.789 97.1493 533.8 96.724C535.849 96.26 538.111 96.028 540.586 96.028C541.05 96.028 541.591 96.0667 542.21 96.144C542.828 96.1827 543.447 96.26 544.066 96.376C544.684 96.4533 545.284 96.5693 545.864 96.724C546.444 96.84 546.908 96.956 547.256 97.072L546.038 102.988ZM591.783 91.33C592.402 93.418 593.059 95.6027 593.755 97.884C594.451 100.127 595.167 102.389 595.901 104.67C596.675 106.913 597.429 109.136 598.163 111.34C598.937 113.505 599.671 115.555 600.367 117.488C600.947 115.4 601.508 113.138 602.049 110.702C602.591 108.227 603.132 105.675 603.673 103.046C604.215 100.378 604.737 97.6713 605.239 94.926C605.781 92.1807 606.283 89.474 606.747 86.806H614.287C612.934 94.0753 611.426 101.074 609.763 107.802C608.101 114.491 606.245 120.891 604.195 127H597.235C594.219 119.189 591.3 110.663 588.477 101.422C587.047 106.101 585.597 110.547 584.127 114.762C582.658 118.977 581.189 123.056 579.719 127H572.759C570.671 120.891 568.796 114.491 567.133 107.802C565.509 101.074 564.021 94.0753 562.667 86.806H570.497C570.961 89.4353 571.445 92.1227 571.947 94.868C572.489 97.6133 573.03 100.32 573.571 102.988C574.151 105.617 574.731 108.169 575.311 110.644C575.891 113.119 576.471 115.4 577.051 117.488C577.786 115.516 578.521 113.447 579.255 111.282C580.029 109.078 580.783 106.855 581.517 104.612C582.252 102.331 582.948 100.069 583.605 97.826C584.301 95.5833 584.939 93.418 585.519 91.33H591.783ZM617.357 111.978C617.357 109.31 617.744 106.971 618.517 104.96C619.329 102.949 620.392 101.287 621.707 99.972C623.022 98.6187 624.53 97.6133 626.231 96.956C627.932 96.26 629.672 95.912 631.451 95.912C635.627 95.912 638.875 97.2073 641.195 99.798C643.554 102.389 644.733 106.255 644.733 111.398C644.733 111.785 644.714 112.229 644.675 112.732C644.675 113.196 644.656 113.621 644.617 114.008H624.607C624.8 116.444 625.651 118.339 627.159 119.692C628.706 121.007 630.929 121.664 633.829 121.664C635.53 121.664 637.077 121.509 638.469 121.2C639.9 120.891 641.021 120.562 641.833 120.214L642.761 125.956C642.374 126.149 641.833 126.362 641.137 126.594C640.48 126.787 639.706 126.961 638.817 127.116C637.966 127.309 637.038 127.464 636.033 127.58C635.028 127.696 634.003 127.754 632.959 127.754C630.291 127.754 627.971 127.367 625.999 126.594C624.027 125.782 622.403 124.68 621.127 123.288C619.851 121.857 618.904 120.195 618.285 118.3C617.666 116.367 617.357 114.259 617.357 111.978ZM637.715 108.846C637.715 107.879 637.58 106.971 637.309 106.12C637.038 105.231 636.632 104.477 636.091 103.858C635.588 103.201 634.95 102.698 634.177 102.35C633.442 101.963 632.553 101.77 631.509 101.77C630.426 101.77 629.479 101.983 628.667 102.408C627.855 102.795 627.159 103.317 626.579 103.974C626.038 104.631 625.612 105.385 625.303 106.236C624.994 107.087 624.781 107.957 624.665 108.846H637.715ZM672.3 111.746C672.3 108.769 671.7 106.41 670.502 104.67C669.342 102.93 667.486 102.06 664.934 102.06C663.774 102.06 662.672 102.234 661.628 102.582C660.622 102.93 659.81 103.317 659.192 103.742V121.2C659.694 121.316 660.332 121.432 661.106 121.548C661.918 121.625 662.884 121.664 664.006 121.664C666.596 121.664 668.626 120.794 670.096 119.054C671.565 117.275 672.3 114.839 672.3 111.746ZM679.492 111.862C679.492 114.298 679.124 116.502 678.39 118.474C677.694 120.407 676.669 122.07 675.316 123.462C674.001 124.854 672.396 125.917 670.502 126.652C668.607 127.387 666.461 127.754 664.064 127.754C661.744 127.754 659.52 127.58 657.394 127.232C655.306 126.884 653.566 126.497 652.174 126.072V83.152L659.192 81.992V97.71C660.004 97.2847 660.99 96.898 662.15 96.55C663.348 96.202 664.663 96.028 666.094 96.028C668.22 96.028 670.115 96.4147 671.778 97.188C673.479 97.9227 674.89 98.986 676.012 100.378C677.133 101.77 677.984 103.452 678.564 105.424C679.182 107.357 679.492 109.503 679.492 111.862ZM694.902 97.594C694.902 100.803 694.786 103.742 694.554 106.41C694.322 109.078 694.032 111.765 693.684 114.472H688.696C688.31 111.765 688 109.078 687.768 106.41C687.536 103.703 687.42 100.765 687.42 97.594V86.806H694.902V97.594ZM695.772 123.172C695.772 124.525 695.328 125.627 694.438 126.478C693.549 127.329 692.447 127.754 691.132 127.754C689.856 127.754 688.754 127.329 687.826 126.478C686.937 125.627 686.492 124.525 686.492 123.172C686.492 121.819 686.937 120.717 687.826 119.866C688.754 118.977 689.856 118.532 691.132 118.532C692.447 118.532 693.549 118.977 694.438 119.866C695.328 120.717 695.772 121.819 695.772 123.172Z" fill="black"/>
</g>
<defs>
<filter id="filter0_dd" x="0" y="0" width="818" height="223.363" filterUnits="userSpaceOnUse" color-interpolation-filters="sRGB">
<feFlood flood-opacity="0" result="BackgroundImageFix"/>
<feColorMatrix in="SourceAlpha" type="matrix" values="0 0 0 0 0 0 0 0 0 0 0 0 0 0 0 0 0 0 127 0"/>
<feOffset dy="11"/>
<feGaussianBlur stdDeviation="2"/>
<feColorMatrix type="matrix" values="0 0 0 0 0 0 0 0 0 0 0 0 0 0 0 0 0 0 0.25 0"/>
<feBlend mode="normal" in2="BackgroundImageFix" result="effect1_dropShadow"/>
<feColorMatrix in="SourceAlpha" type="matrix" values="0 0 0 0 0 0 0 0 0 0 0 0 0 0 0 0 0 0 127 0"/>
<feOffset/>
<feGaussianBlur stdDeviation="2"/>
<feColorMatrix type="matrix" values="0 0 0 0 0 0 0 0 0 0 0 0 0 0 0 0 0 0 0.25 0"/>
<feBlend mode="normal" in2="effect1_dropShadow" result="effect2_dropShadow"/>
<feBlend mode="normal" in="SourceGraphic" in2="effect2_dropShadow" result="shape"/>
</filter>
</defs>
</svg>
