<svg width="1517" height="477" viewBox="0 0 1517 477" fill="none" xmlns="http://www.w3.org/2000/svg">
<rect width="1517" height="477" fill="white"/>
<path d="M401.938 300.527C422.712 300.527 433.098 293.42 433.098 279.207C433.098 274.833 432.142 271.143 430.228 268.137C428.452 264.993 425.992 262.328 422.848 260.142C419.705 257.818 416.083 255.837 411.983 254.197C408.02 252.557 403.783 250.917 399.273 249.277C394.08 247.5 389.16 245.518 384.513 243.332C379.867 241.008 375.835 238.343 372.418 235.337C369.002 232.193 366.268 228.503 364.218 224.267C362.305 220.03 361.348 214.905 361.348 208.892C361.348 196.455 365.585 186.752 374.058 179.782C382.532 172.812 394.217 169.327 409.113 169.327C417.723 169.327 425.513 170.283 432.483 172.197C439.59 173.973 444.783 175.955 448.063 178.142L441.708 194.337C438.838 192.56 434.533 190.852 428.793 189.212C423.19 187.435 416.63 186.547 409.113 186.547C405.287 186.547 401.733 186.957 398.453 187.777C395.173 188.597 392.303 189.827 389.843 191.467C387.383 193.107 385.402 195.225 383.898 197.822C382.532 200.282 381.848 203.22 381.848 206.637C381.848 210.463 382.6 213.675 384.103 216.272C385.607 218.868 387.725 221.192 390.458 223.242C393.192 225.155 396.335 226.932 399.888 228.572C403.578 230.212 407.61 231.852 411.983 233.492C418.133 235.952 423.737 238.412 428.793 240.872C433.987 243.332 438.428 246.27 442.118 249.687C445.945 253.103 448.883 257.203 450.933 261.987C452.983 266.633 454.008 272.305 454.008 279.002C454.008 291.438 449.43 301.005 440.273 307.702C431.253 314.398 418.475 317.747 401.938 317.747C396.335 317.747 391.142 317.337 386.358 316.517C381.712 315.833 377.543 315.013 373.853 314.057C370.163 312.963 366.952 311.87 364.218 310.777C361.622 309.547 359.572 308.522 358.068 307.702L364.013 291.302C367.157 293.078 371.94 295.06 378.363 297.247C384.787 299.433 392.645 300.527 401.938 300.527ZM495.875 314.672H476.81V208.072H495.875V314.672ZM486.24 188.802C482.823 188.802 479.885 187.708 477.425 185.522C475.101 183.198 473.94 180.123 473.94 176.297C473.94 172.47 475.101 169.463 477.425 167.277C479.885 164.953 482.823 163.792 486.24 163.792C489.656 163.792 492.526 164.953 494.85 167.277C497.31 169.463 498.54 172.47 498.54 176.297C498.54 180.123 497.31 183.198 494.85 185.522C492.526 187.708 489.656 188.802 486.24 188.802ZM528.66 211.147C533.034 210.053 538.774 208.892 545.88 207.662C553.124 206.432 561.46 205.817 570.89 205.817C577.724 205.817 583.464 206.773 588.11 208.687C592.757 210.463 596.652 213.128 599.795 216.682C600.752 215.998 602.255 215.042 604.305 213.812C606.355 212.582 608.884 211.42 611.89 210.327C614.897 209.097 618.245 208.072 621.935 207.252C625.625 206.295 629.589 205.817 633.825 205.817C642.025 205.817 648.722 207.047 653.915 209.507C659.109 211.83 663.14 215.178 666.01 219.552C669.017 223.925 670.999 229.118 671.955 235.132C673.049 241.145 673.595 247.705 673.595 254.812V314.672H654.53V258.912C654.53 252.625 654.189 247.227 653.505 242.717C652.959 238.207 651.797 234.448 650.02 231.442C648.38 228.435 646.057 226.248 643.05 224.882C640.18 223.378 636.422 222.627 631.775 222.627C625.352 222.627 620.022 223.515 615.785 225.292C611.685 226.932 608.884 228.435 607.38 229.802C608.474 233.355 609.294 237.25 609.84 241.487C610.387 245.723 610.66 250.165 610.66 254.812V314.672H591.595V258.912C591.595 252.625 591.254 247.227 590.57 242.717C589.887 238.207 588.657 234.448 586.88 231.442C585.24 228.435 582.917 226.248 579.91 224.882C577.04 223.378 573.35 222.627 568.84 222.627C566.927 222.627 564.877 222.695 562.69 222.832C560.504 222.968 558.385 223.173 556.335 223.447C554.422 223.583 552.645 223.788 551.005 224.062C549.365 224.335 548.272 224.54 547.725 224.677V314.672H528.66V211.147ZM790.103 311.597C785.729 312.69 779.921 313.852 772.678 315.082C765.571 316.312 757.303 316.927 747.873 316.927C739.673 316.927 732.771 315.765 727.168 313.442C721.564 310.982 717.054 307.565 713.638 303.192C710.221 298.818 707.761 293.693 706.258 287.817C704.754 281.803 704.003 275.175 704.003 267.932V208.072H723.068V263.832C723.068 276.815 725.118 286.108 729.218 291.712C733.318 297.315 740.219 300.117 749.923 300.117C751.973 300.117 754.091 300.048 756.278 299.912C758.464 299.775 760.514 299.638 762.428 299.502C764.341 299.228 766.049 299.023 767.553 298.887C769.193 298.613 770.354 298.34 771.038 298.067V208.072H790.103V311.597ZM854.927 316.722C843.174 316.448 834.837 313.92 829.917 309.137C824.997 304.353 822.537 296.905 822.537 286.792V158.872L841.602 155.592V283.717C841.602 286.86 841.876 289.457 842.422 291.507C842.969 293.557 843.857 295.197 845.087 296.427C846.317 297.657 847.957 298.613 850.007 299.297C852.057 299.843 854.586 300.322 857.592 300.732L854.927 316.722ZM915.082 300.937C919.592 300.937 923.555 300.868 926.972 300.732C930.525 300.458 933.464 300.048 935.787 299.502V267.727C934.42 267.043 932.165 266.497 929.022 266.087C926.015 265.54 922.325 265.267 917.952 265.267C915.082 265.267 912.007 265.472 908.727 265.882C905.584 266.292 902.645 267.18 899.912 268.547C897.315 269.777 895.129 271.553 893.352 273.877C891.575 276.063 890.687 279.002 890.687 282.692C890.687 289.525 892.874 294.308 897.247 297.042C901.62 299.638 907.565 300.937 915.082 300.937ZM913.442 205.407C921.095 205.407 927.519 206.432 932.712 208.482C938.042 210.395 942.279 213.197 945.422 216.887C948.702 220.44 951.025 224.745 952.392 229.802C953.759 234.722 954.442 240.188 954.442 246.202V312.827C952.802 313.1 950.479 313.51 947.472 314.057C944.602 314.467 941.322 314.877 937.632 315.287C933.942 315.697 929.91 316.038 925.537 316.312C921.3 316.722 917.064 316.927 912.827 316.927C906.814 316.927 901.279 316.312 896.222 315.082C891.165 313.852 886.792 311.938 883.102 309.342C879.412 306.608 876.542 303.055 874.492 298.682C872.442 294.308 871.417 289.047 871.417 282.897C871.417 277.02 872.579 271.963 874.902 267.727C877.362 263.49 880.642 260.073 884.742 257.477C888.842 254.88 893.625 252.967 899.092 251.737C904.559 250.507 910.299 249.892 916.312 249.892C918.225 249.892 920.207 250.028 922.257 250.302C924.307 250.438 926.22 250.712 927.997 251.122C929.91 251.395 931.55 251.668 932.917 251.942C934.284 252.215 935.24 252.42 935.787 252.557V247.227C935.787 244.083 935.445 241.008 934.762 238.002C934.079 234.858 932.849 232.125 931.072 229.802C929.295 227.342 926.835 225.428 923.692 224.062C920.685 222.558 916.722 221.807 911.802 221.807C905.515 221.807 899.98 222.285 895.197 223.242C890.55 224.062 887.065 224.95 884.742 225.907L882.487 210.122C884.947 209.028 889.047 208.003 894.787 207.047C900.527 205.953 906.745 205.407 913.442 205.407ZM1003.94 208.072H1044.33V224.062H1003.94V273.262C1003.94 278.592 1004.35 283.033 1005.17 286.587C1005.99 290.003 1007.22 292.737 1008.86 294.787C1010.5 296.7 1012.55 298.067 1015.01 298.887C1017.47 299.707 1020.34 300.117 1023.62 300.117C1029.36 300.117 1033.94 299.502 1037.36 298.272C1040.91 296.905 1043.37 295.948 1044.74 295.402L1048.43 311.187C1046.51 312.143 1043.16 313.305 1038.38 314.672C1033.6 316.175 1028.13 316.927 1021.98 316.927C1014.74 316.927 1008.72 316.038 1003.94 314.262C999.295 312.348 995.537 309.547 992.667 305.857C989.797 302.167 987.747 297.657 986.517 292.327C985.423 286.86 984.877 280.573 984.877 273.467V178.347L1003.94 175.067V208.072ZM1060.64 261.577C1060.64 252.147 1062.01 243.947 1064.74 236.977C1067.47 229.87 1071.1 223.993 1075.61 219.347C1080.12 214.7 1085.31 211.215 1091.19 208.892C1097.06 206.568 1103.08 205.407 1109.23 205.407C1123.58 205.407 1134.58 209.917 1142.23 218.937C1149.88 227.82 1153.71 241.418 1153.71 259.732C1153.71 260.552 1153.71 261.645 1153.71 263.012C1153.71 264.242 1153.64 265.403 1153.51 266.497H1080.53C1081.35 277.567 1084.56 285.972 1090.16 291.712C1095.76 297.452 1104.51 300.322 1116.4 300.322C1123.1 300.322 1128.7 299.775 1133.21 298.682C1137.86 297.452 1141.34 296.29 1143.67 295.197L1146.33 311.187C1144.01 312.417 1139.91 313.715 1134.03 315.082C1128.29 316.448 1121.73 317.132 1114.35 317.132C1105.06 317.132 1096.99 315.765 1090.16 313.032C1083.46 310.162 1077.93 306.267 1073.56 301.347C1069.18 296.427 1065.9 290.618 1063.72 283.922C1061.67 277.088 1060.64 269.64 1060.64 261.577ZM1133.83 251.122C1133.96 242.512 1131.78 235.473 1127.27 230.007C1122.89 224.403 1116.81 221.602 1109.02 221.602C1104.65 221.602 1100.75 222.49 1097.34 224.267C1094.06 225.907 1091.25 228.093 1088.93 230.827C1086.61 233.56 1084.76 236.703 1083.4 240.257C1082.17 243.81 1081.35 247.432 1080.94 251.122H1133.83Z" fill="black"/>
</svg>
